<svg xmlns="http://www.w3.org/2000/svg" viewBox="0 0 32 32" fill="none">
  <defs>
    <linearGradient id="g" x1="0" y1="0" x2="32" y2="32" gradientUnits="userSpaceOnUse">
      <stop offset="0%" stop-color="#f5c430"/>
      <stop offset="100%" stop-color="#38bdf8"/>
    </linearGradient>
  </defs>
  <!-- Background -->
  <rect width="32" height="32" rx="6" fill="#0d1520"/>
  <!-- D shape -->
  <path d="M6 9h5.5c3.6 0 6.5 2.9 6.5 7s-2.9 7-6.5 7H6V9z" fill="url(#g)" opacity="0.15"/>
  <path d="M7.5 10.5h4c2.7 0 4.8 2.2 4.8 5.5s-2.1 5.5-4.8 5.5h-4V10.5z" stroke="url(#g)" stroke-width="1.2" fill="none"/>
  <!-- R shape -->
  <path d="M18 9h5c1.7 0 3 1.3 3 3s-1.3 3-3 3h-5V9z" stroke="url(#g)" stroke-width="1.2" fill="none"/>
  <line x1="18" y1="15" x2="18" y2="23" stroke="url(#g)" stroke-width="1.2" stroke-linecap="round"/>
  <line x1="21" y1="15" x2="26" y2="23" stroke="url(#g)" stroke-width="1.2" stroke-linecap="round"/>
</svg>
